# xmcd
#
# Track frame offsets: 
#        150
#        14727
#        28850
#        42155
#        55095
#        67195
#        80272
#        93585
#        105630
#        118260
#        130830
#        142565
#        152900
#        165820
#        178582
#        191242
#
# Disc length: 2720 seconds
#
# Revision: 2
# Processed by: cddbd v1.5.2PL0 Copyright (c) Steve Scherf et al.
# Submitted via: ExactAudioCopyFreeDBPlugin 1.0
#
DISCID=d60a9e10
DTITLE=Various Artist - Motown Chartbusters Volume 3
DYEAR=1969
DGENRE=Soul
TTITLE0=Marvin Gaye - I Heard It Through The Grapevine
TTITLE1=Diana Ross and The Supremes - The Temptations - I'm Gonna Make Yo
TTITLE1=u Love Me
TTITLE2=Stevie Wonder - My Cherie Amour
TTITLE3=Isley Brothers - This Old Heart Of Mine (Is Weak For You)
TTITLE4=Marv Johnson - I'll Pick A Rose For My Rose
TTITLE5=Diana Ross and The Supremes - No Matter What Sign You Are
TTITLE6=Four Tops - I'm In A Different World
TTITLE7=Martha Reeves And The Vandellas - Dancing In The Street
TTITLE8=Stevie Wonder - For Once In My Life
TTITLE9=Marvin Gaye - Tammi Terrell - You're All I Need To Get By
TTITLE10=The Temptations - Get Ready
TTITLE11=Edwin Starr - Stop Her On Sight (S.O.S.)
TTITLE12=Diana Ross and The Supremes - Love Child
TTITLE13=Isley Brothers - Behind A Painted Smile
TTITLE14=JR Walker and The All Stars - (I'm A) Road Runner
TTITLE15=Smokey Robinson and The Miracles - The Tracks Of My Tears
EXTD=
EXTT0=
EXTT1=
EXTT2=
EXTT3=
EXTT4=
EXTT5=
EXTT6=
EXTT7=
EXTT8=
EXTT9=
EXTT10=
EXTT11=
EXTT12=
EXTT13=
EXTT14=
EXTT15=
PLAYORDER=
